<?xml version="1.0" standalone="no"?>
<!DOCTYPE svg PUBLIC "-//W3C//DTD SVG 20010904//EN"
 "http://www.w3.org/TR/2001/REC-SVG-20010904/DTD/svg10.dtd">
<svg version="1.0" xmlns="http://www.w3.org/2000/svg"
 width="700.000000pt" height="700.000000pt" viewBox="0 0 700.000000 700.000000"
 preserveAspectRatio="xMidYMid meet">
<metadata>
Created by potrace 1.14, written by Peter Selinger 2001-2017
</metadata>
<g transform="translate(0.000000,700.000000) scale(0.100000,-0.100000)"
fill="#000000" stroke="none">
<path d="M5057 6795 c-1 -2 -31 -5 -67 -8 -117 -10 -233 -39 -325 -82 -377
-172 -658 -613 -779 -1225 -24 -125 -36 -187 -42 -225 -7 -48 -15 -102 -19
-125 -3 -14 -7 -45 -10 -70 -3 -25 -7 -63 -10 -85 -2 -22 -7 -78 -11 -125 -3
-47 -7 -103 -9 -125 -24 -263 -24 -1719 0 -2065 14 -204 33 -395 51 -510 21
-140 35 -229 39 -250 3 -14 8 -41 11 -60 4 -19 18 -82 31 -140 14 -58 26 -109
27 -115 1 -5 5 -16 9 -23 5 -6 6 -12 3 -12 -10 0 64 -200 112 -304 163 -356
342 -562 598 -689 68 -35 181 -74 239 -83 17 -2 55 -9 85 -14 30 -5 105 -7
165 -6 137 4 183 19 407 132 l168 84 19 -39 c11 -21 34 -50 52 -65 59 -50 88
-60 181 -60 81 -1 88 1 124 30 65 52 79 92 79 224 0 106 -12 297 -19 310 -2 3
-7 29 -10 59 -6 52 -31 216 -42 271 -7 39 -33 201 -39 245 -3 22 -8 51 -10 65
-2 14 -7 57 -10 95 -4 39 -8 81 -11 95 -2 14 -6 88 -9 165 -3 77 -10 163 -16
190 -19 83 -65 170 -115 214 -99 87 -223 95 -524 35 -311 -62 -397 -134 -355
-298 24 -94 109 -147 235 -149 76 -2 284 17 318 28 37 13 98 -223 117 -460 4
-44 9 -93 11 -110 2 -16 7 -90 10 -164 3 -73 7 -141 9 -150 4 -33 -129 -174
-225 -239 -64 -43 -143 -76 -226 -95 -71 -17 -228 -15 -304 3 -197 46 -382
197 -493 401 -89 163 -199 509 -222 699 -4 30 -8 57 -10 60 -2 3 -6 41 -10 85
-3 44 -8 96 -10 115 -19 183 -19 184 -31 425 -4 83 -8 247 -8 365 0 269 13
1121 18 1215 3 39 7 131 11 205 3 74 8 151 10 170 2 19 6 71 10 115 3 44 8 87
10 95 2 8 6 42 10 75 6 61 15 136 21 167 1 9 10 68 19 130 43 301 112 556 216
795 67 153 110 224 183 297 129 131 283 167 476 112 182 -53 332 100 259 264
-41 91 -121 128 -292 134 -42 1 -78 2 -80 1z"/>
<path d="M2171 6588 c-120 -59 -243 -325 -395 -853 -58 -199 -170 -666 -190
-785 -3 -19 -16 -87 -30 -150 -13 -63 -27 -131 -30 -150 -3 -19 -14 -78 -25
-130 -17 -84 -56 -292 -67 -360 -2 -14 -7 -36 -10 -50 -3 -14 -8 -36 -10 -50
-4 -22 -35 -197 -49 -275 -3 -16 -12 -68 -20 -115 -8 -47 -17 -98 -20 -115 -3
-16 -8 -41 -10 -55 -3 -14 -7 -36 -10 -50 -2 -14 -8 -52 -14 -85 -6 -33 -13
-76 -16 -95 -8 -51 -25 -151 -31 -180 -3 -14 -7 -41 -10 -60 -2 -19 -7 -42 -9
-50 -2 -8 -7 -31 -10 -50 -3 -19 -12 -71 -20 -115 -41 -223 -105 -576 -111
-611 -3 -21 -10 -58 -15 -82 -5 -23 -12 -59 -15 -80 -3 -20 -7 -44 -9 -52 -2
-8 -7 -33 -10 -55 -3 -23 -8 -52 -10 -65 -3 -14 -8 -38 -11 -55 -3 -16 -16
-90 -30 -165 -14 -74 -28 -146 -30 -160 -2 -14 -9 -47 -15 -75 -6 -27 -13 -61
-15 -75 -23 -119 -86 -334 -121 -408 -13 -27 -13 -37 -2 -63 27 -67 135 -117
264 -121 l70 -3 27 55 c15 30 35 75 44 100 9 25 20 54 24 65 8 19 39 123 45
155 2 8 13 56 25 105 12 50 24 101 26 115 3 14 11 57 19 95 8 39 16 81 18 95
3 14 10 54 17 90 7 36 14 76 16 90 15 81 60 235 87 300 l32 75 70 -1 c91 -1
168 -10 340 -39 156 -27 192 -33 217 -41 10 -3 29 -7 43 -10 51 -9 181 -55
220 -77 l40 -23 0 -549 c1 -515 2 -552 20 -588 25 -52 77 -85 151 -95 178 -24
289 33 324 168 11 40 8 383 -5 585 -12 194 -33 464 -40 525 -2 19 -7 70 -10
113 -4 43 -8 86 -10 95 -1 9 -6 58 -10 107 -4 50 -8 92 -10 95 -1 3 -6 46 -10
95 -4 50 -8 92 -10 95 -1 3 -6 51 -9 107 -4 56 -9 115 -11 132 -4 33 -13 163
-20 291 -3 41 -7 174 -10 295 -3 121 -7 250 -10 288 -3 37 -7 100 -10 140 -5
65 -8 98 -20 222 -2 22 -7 74 -11 115 -3 41 -8 83 -10 93 -2 10 -6 46 -9 80
-6 61 -10 101 -20 175 -10 75 -15 118 -20 172 -3 30 -8 66 -10 80 -3 14 -7 45
-10 70 -3 25 -7 56 -10 70 -2 14 -7 50 -10 80 -3 30 -8 66 -10 80 -2 14 -7 53
-10 87 -3 34 -7 70 -9 80 -2 10 -7 45 -10 78 -4 33 -11 94 -16 135 -13 110
-19 159 -25 215 -3 28 -7 66 -10 85 -8 60 -14 112 -20 185 -3 39 -8 86 -10
105 -2 19 -6 64 -9 100 -4 36 -9 90 -11 120 -9 88 -15 190 -16 258 -1 71 -8
79 -94 106 -84 26 -167 27 -214 4z m5 -1176 c3 -85 14 -319 19 -382 2 -30 7
-91 10 -135 7 -99 14 -178 20 -252 3 -32 7 -87 10 -123 3 -36 7 -85 10 -110 2
-25 7 -74 10 -110 3 -36 8 -83 10 -105 2 -22 7 -71 10 -110 3 -38 8 -86 10
-105 2 -19 7 -62 10 -95 8 -91 15 -166 20 -210 2 -22 7 -67 10 -100 3 -33 7
-78 10 -100 2 -22 7 -67 10 -100 8 -85 16 -165 20 -200 6 -40 13 -113 20 -205
4 -41 8 -86 11 -100 2 -14 6 -61 10 -105 3 -44 7 -90 9 -102 3 -18 10 -114 19
-262 1 -21 -5 -26 -49 -36 -90 -20 -356 -8 -550 26 -33 5 -69 12 -80 13 -11 2
-38 9 -60 14 -22 6 -59 16 -82 22 -25 6 -41 15 -38 23 2 6 7 53 10 102 10 132
16 186 30 265 2 14 7 43 9 65 13 95 47 331 51 345 3 8 7 35 10 60 3 25 24 151
46 280 22 129 44 260 50 290 5 30 11 66 14 80 7 36 34 180 40 218 3 18 12 64
20 102 8 38 17 84 20 101 3 16 24 117 46 222 22 106 42 201 44 212 58 290 181
693 204 669 3 -3 7 -31 7 -62z"/>
</g>
</svg>
