<?xml version="1.0" standalone="no"?>
<!DOCTYPE svg PUBLIC "-//W3C//DTD SVG 20010904//EN"
 "http://www.w3.org/TR/2001/REC-SVG-20010904/DTD/svg10.dtd">
<svg version="1.0" xmlns="http://www.w3.org/2000/svg"
 width="700.000000pt" height="700.000000pt" viewBox="0 0 700.000000 700.000000"
 preserveAspectRatio="xMidYMid meet">
<metadata>
Created by potrace 1.14, written by Peter Selinger 2001-2017
</metadata>
<g transform="translate(0.000000,700.000000) scale(0.100000,-0.100000)"
fill="#000000" stroke="none">
<path d="M5097 4895 c-1 -2 -42 -5 -92 -9 -49 -3 -99 -8 -110 -10 -11 -2 -40
-7 -65 -11 -71 -11 -157 -34 -255 -66 -365 -122 -650 -368 -821 -709 -84 -168
-126 -307 -169 -560 -12 -67 -14 -436 -4 -525 72 -624 409 -1063 955 -1243
207 -68 380 -91 664 -87 298 4 507 37 774 122 129 41 173 62 201 95 52 61 50
23 53 760 2 775 5 751 -71 812 l-39 31 -565 1 c-645 1 -600 7 -624 -88 -25
-102 -14 -292 19 -355 7 -12 22 -25 34 -29 13 -4 156 -8 318 -8 l295 -1 1
-361 0 -362 -50 -22 c-198 -88 -462 -96 -697 -20 -221 71 -393 220 -499 429
-35 71 -84 205 -95 261 -24 124 -29 177 -29 325 -1 199 6 260 45 405 45 164
145 336 258 445 186 179 417 264 706 260 192 -3 300 -21 480 -80 118 -39 136
-47 398 -182 75 -39 117 36 121 217 2 121 -8 211 -29 260 -56 125 -427 264
-790 295 -75 7 -312 14 -318 10z"/>
<path d="M1738 4855 c-2 -2 -30 -5 -62 -9 -105 -11 -129 -36 -184 -196 -16
-47 -96 -276 -177 -510 -199 -573 -277 -796 -340 -980 -29 -85 -83 -240 -120
-345 -37 -104 -75 -215 -85 -245 -10 -30 -48 -140 -85 -245 -168 -477 -182
-533 -144 -574 34 -36 91 -43 299 -39 214 4 257 15 284 67 10 19 123 356 131
391 8 36 80 247 86 254 5 5 254 10 588 10 l581 1 9 -25 c6 -14 55 -158 109
-320 55 -162 105 -307 112 -322 23 -49 78 -58 344 -58 206 0 261 7 289 38 39
43 27 88 -153 602 -80 227 -281 804 -303 870 -9 25 -41 117 -72 205 -31 88
-65 185 -75 215 -19 57 -110 319 -225 645 -37 105 -89 255 -116 334 -27 79
-59 157 -70 172 -18 25 -50 41 -110 55 -22 5 -506 13 -511 9z m406 -1270 c119
-358 216 -654 216 -658 0 -7 -858 -9 -870 -2 -4 2 89 294 207 647 244 734 222
672 227 667 2 -2 101 -297 220 -654z"/>
</g>
</svg>
