<?xml version="1.0" standalone="no"?>
<!DOCTYPE svg PUBLIC "-//W3C//DTD SVG 20010904//EN"
 "http://www.w3.org/TR/2001/REC-SVG-20010904/DTD/svg10.dtd">
<svg version="1.0" xmlns="http://www.w3.org/2000/svg"
 width="700.000000pt" height="700.000000pt" viewBox="0 0 700.000000 700.000000"
 preserveAspectRatio="xMidYMid meet">
<metadata>
Created by potrace 1.14, written by Peter Selinger 2001-2017
</metadata>
<g transform="translate(0.000000,700.000000) scale(0.100000,-0.100000)"
fill="#000000" stroke="none">
<path d="M5020 5078 c-160 -13 -223 -25 -378 -69 -106 -31 -250 -89 -312 -127
-19 -12 -46 -27 -60 -34 -14 -7 -29 -16 -35 -21 -5 -4 -41 -31 -80 -59 -139
-103 -288 -277 -379 -442 -88 -158 -162 -396 -190 -606 -18 -133 -18 -423 0
-560 51 -401 221 -733 492 -963 61 -52 202 -138 295 -181 184 -85 355 -128
607 -151 55 -5 299 -5 357 0 150 12 181 16 203 20 14 3 43 7 65 10 21 3 55 10
75 15 19 5 46 11 60 14 51 9 188 46 265 72 149 50 186 77 210 156 13 44 15
147 15 713 0 468 -3 672 -11 696 -17 50 -56 98 -92 113 -25 10 -153 12 -590
12 l-559 -1 -19 -23 c-27 -34 -41 -95 -43 -192 -4 -147 17 -232 63 -253 19 -9
104 -12 319 -11 205 0 292 -2 294 -10 0 -6 2 -170 3 -363 l1 -353 -70 -29
c-68 -27 -142 -48 -203 -56 -41 -6 -243 -6 -276 0 -15 3 -55 10 -88 16 -214
37 -425 172 -546 349 -71 105 -140 271 -163 397 -5 32 -13 69 -16 83 -10 44
-13 353 -4 415 49 350 193 601 436 758 197 128 432 173 734 143 164 -16 419
-96 565 -176 129 -72 177 -92 200 -86 50 13 72 104 69 287 -2 117 -21 202 -53
236 -92 98 -343 196 -611 238 -19 3 -46 7 -60 10 -101 18 -351 25 -490 13z"/>
<path d="M1681 5038 c-121 -16 -128 -25 -210 -263 -29 -82 -68 -193 -86 -245
-19 -52 -56 -160 -83 -240 -28 -80 -87 -251 -132 -380 -45 -129 -102 -291
-125 -360 -24 -69 -75 -217 -115 -330 -39 -113 -82 -236 -95 -275 -13 -38 -38
-110 -56 -160 -81 -230 -162 -463 -171 -495 -6 -19 -14 -39 -18 -45 -5 -5 -8
-12 -8 -15 0 -3 -11 -42 -26 -88 -44 -141 -44 -184 3 -219 22 -16 106 -24 256
-25 197 0 271 15 300 59 13 20 88 229 100 278 1 6 5 17 8 25 8 18 85 262 99
310 5 19 14 39 18 44 5 5 270 9 589 10 l581 1 15 -40 c8 -22 57 -167 109 -322
52 -155 99 -291 106 -302 27 -52 87 -63 343 -63 195 0 250 7 284 36 52 45 60
17 -282 991 -36 105 -77 222 -90 260 -13 39 -52 149 -85 245 -91 258 -195 558
-245 700 -24 69 -75 217 -115 330 -39 113 -78 225 -86 250 -8 25 -19 54 -24
65 -4 11 -19 52 -31 90 -42 125 -68 153 -159 171 -53 10 -496 11 -569 2z m269
-680 c12 -40 26 -82 30 -93 13 -29 380 -1139 380 -1148 0 -4 -198 -7 -441 -7
-416 0 -441 1 -434 18 4 9 101 301 216 647 241 726 217 655 222 655 3 0 14
-33 27 -72z"/>
</g>
</svg>
