<?xml version="1.0" standalone="no"?>
<!DOCTYPE svg PUBLIC "-//W3C//DTD SVG 20010904//EN"
 "http://www.w3.org/TR/2001/REC-SVG-20010904/DTD/svg10.dtd">
<svg version="1.0" xmlns="http://www.w3.org/2000/svg"
 width="700.000000pt" height="700.000000pt" viewBox="0 0 700.000000 700.000000"
 preserveAspectRatio="xMidYMid meet">
<metadata>
Created by potrace 1.14, written by Peter Selinger 2001-2017
</metadata>
<g transform="translate(0.000000,700.000000) scale(0.100000,-0.100000)"
fill="#000000" stroke="none">
<path d="M3228 6665 c-2 -2 -47 -6 -100 -10 -53 -3 -105 -7 -115 -9 -10 -2
-40 -7 -68 -10 -58 -8 -110 -16 -134 -21 -126 -26 -221 -49 -291 -70 -47 -15
-89 -28 -95 -29 -16 -4 -43 -15 -140 -53 -110 -44 -282 -130 -364 -183 -34
-22 -66 -40 -71 -40 -4 0 -10 -3 -12 -7 -1 -5 -22 -21 -46 -36 -146 -95 -392
-322 -521 -481 -206 -252 -382 -591 -487 -933 -37 -121 -87 -346 -99 -442 -4
-30 -9 -63 -11 -75 -19 -98 -26 -509 -11 -641 85 -752 623 -1229 1311 -1163
247 24 461 125 640 302 113 111 177 199 291 400 l28 50 17 -85 c59 -284 225
-510 446 -604 231 -99 566 -91 810 20 59 27 165 92 209 127 45 37 64 53 87 74
15 13 32 24 37 24 5 0 20 -17 32 -37 106 -175 345 -293 559 -277 158 12 318
95 414 215 22 27 40 48 42 47 2 -3 -21 -147 -25 -155 -1 -2 -1 -7 -1 -13 0 -5
-44 -44 -97 -87 -94 -74 -272 -221 -283 -233 -3 -3 -34 -30 -70 -60 -121 -103
-275 -251 -383 -369 -302 -328 -480 -695 -479 -991 0 -106 8 -158 34 -229 84
-225 291 -355 552 -345 98 3 130 8 209 36 335 114 584 486 804 1198 33 107 98
339 107 385 3 11 19 81 36 155 18 74 34 146 37 160 2 13 11 56 19 95 9 38 18
81 20 95 2 14 7 36 9 50 16 80 22 111 55 310 26 160 27 165 36 225 3 28 8 59
10 70 3 11 7 36 10 55 10 63 14 90 19 118 8 51 66 397 70 422 2 14 7 43 10 65
12 76 16 100 20 115 2 8 7 38 10 65 4 28 9 59 10 70 3 22 53 340 62 395 12 76
6 177 -13 216 -31 63 -75 79 -219 78 -66 0 -139 -3 -162 -7 l-42 -6 -12 42
c-20 69 -60 120 -104 135 -60 21 -237 9 -360 -23 -439 -115 -839 -541 -984
-1050 -32 -114 -58 -268 -60 -366 -1 -37 -20 -62 -102 -134 -161 -141 -316
-188 -479 -143 -96 26 -171 138 -199 298 -9 53 -8 404 2 465 3 17 8 55 11 85
6 49 12 97 20 155 2 11 7 44 11 74 3 30 9 63 11 75 2 12 7 37 10 56 43 256
125 660 174 865 18 72 33 137 35 145 2 8 18 71 35 140 36 145 40 199 15 258
-37 89 -132 133 -295 136 -213 2 -306 -33 -359 -139 -19 -38 -70 -257 -115
-498 -2 -12 -11 -52 -20 -88 -8 -37 -17 -78 -20 -90 -9 -54 -61 -265 -103
-419 -24 -91 -46 -173 -48 -182 -15 -68 -114 -368 -160 -488 -61 -156 -156
-355 -196 -412 -10 -14 -19 -29 -19 -32 0 -11 -74 -110 -129 -175 -243 -279
-627 -341 -868 -138 -130 109 -228 314 -248 517 -3 30 -8 68 -11 84 -4 16 -6
95 -6 176 0 134 4 200 18 315 3 22 7 54 9 70 3 30 19 122 30 180 53 272 195
612 342 824 197 283 453 493 773 634 125 55 331 107 505 127 153 18 436 16
590 -5 55 -7 117 -16 138 -21 12 -2 38 -7 57 -10 19 -3 98 -19 175 -35 166
-36 227 -37 294 -8 63 27 143 110 179 186 23 49 27 72 27 143 0 139 -35 175
-219 225 -54 15 -108 29 -120 31 -11 2 -32 6 -46 9 -46 11 -185 34 -235 40
-27 3 -63 8 -80 10 -92 14 -576 30 -587 20z m2568 -2367 c-8 -37 -11 -50 -32
-168 -9 -47 -18 -94 -20 -105 -2 -11 -8 -45 -14 -75 -6 -30 -12 -64 -14 -75
-10 -51 -38 -203 -42 -225 -59 -341 -113 -492 -215 -600 -64 -67 -115 -93
-183 -93 -106 0 -180 56 -213 160 -24 80 -18 285 12 423 3 14 8 36 11 50 10
47 56 175 90 245 133 283 379 488 593 494 33 1 33 0 27 -31z m-356 -2368 c0
-21 -90 -369 -125 -485 -142 -467 -324 -752 -469 -732 -78 10 -123 101 -113
231 3 39 13 90 21 114 8 23 16 43 16 45 0 1 3 13 7 27 10 40 84 179 138 258
75 113 218 275 354 402 68 63 131 123 140 132 19 19 31 22 31 8z"/>
</g>
</svg>
